<?xml version="1.0" encoding="UTF-8"?>
<svg id="Capa_1" data-name="Capa 1" xmlns="http://www.w3.org/2000/svg" viewBox="0 0 230.58 233.53">
  <path d="M165.67,114.84v-.03h-6.81c5.96-17.52,6.83-33.69,6.66-43.09-16.89-6.26-34.32-9.77-50.93-10.22-16.21.5-32.81,3.9-49.5,10.11,0,10.57,1.26,29.44,8.64,49.19,10.89,29.14,31.41,43.49,41.56,49.2,11.04-6.67,19.62-14.93,27.17-24.6h37.36c-12.72,23.76-32.88,42.39-58.18,55.43l-6.35,3.28-6.73-2.47c-1.86-.68-44.77-17.33-64.62-70.46-13.73-36.74-10.16-70.19-10-71.6l.99-8.72,8.29-3.58c23.65-10.22,47.51-15.72,70.93-16.37h0s.68-.02.68-.02l.04,1.51.04-1.49c24.11.57,48.42,6.09,72.27,16.38l8.07,3.49,1.16,8.47c.11.81,1.54,11.95.18,28.06h33.68c.2-3.18.33-6.37.33-9.57v-36.16c0-3.79-1.92-7.31-5.17-9.44C212.61,23.74,171.84,0,115.29,0S17.97,23.74,5.17,32.13c-3.25,2.13-5.17,5.66-5.17,9.44v36.16c0,34.16,11.29,67.52,32.64,94.75,40.18,51.25,82.65,61.05,82.65,61.05,0,0,42.47-9.79,82.65-61.05,13.5-17.21,22.96-36.88,28.1-57.65h-60.38Z" fill="#cbcbcb" stroke-width="0"/>
</svg>